<svg width="276" height="50" viewBox="0 0 276 50" fill="none" xmlns="http://www.w3.org/2000/svg">
<rect width="276" height="50" fill="#F71B3A"/>
<path d="M26.8922 39H8.26819V10.2H14.1242V33.336H26.8922V39ZM49.6802 39H30.7682V10.2H49.6802V15.816H36.6242V21.72H49.2482V27.336H36.6242V33.384H49.6802V39ZM79.6142 39H73.3742L71.4542 33.48H61.4222C61.2302 34.088 60.8942 35.016 60.4142 36.264C59.9662 37.48 59.6462 38.392 59.4542 39H53.2142L63.1982 10.2H69.6782L79.6142 39ZM69.6782 27.864L66.4142 18.6C66.0622 19.624 65.5182 21.176 64.7822 23.256C64.0782 25.304 63.5502 26.84 63.1982 27.864H69.6782ZM105.394 39H98.2899L89.6979 27.096H89.2179V39H83.3619V10.2H89.2179V21.912H89.6979C89.7619 21.912 90.5139 20.936 91.9539 18.984C93.3939 17.032 94.8179 15.08 96.2259 13.128L98.3379 10.2H105.25L94.6419 24.408L105.394 39ZM127.54 39H108.628V10.2H127.54V15.816H114.484V21.72H127.108V27.336H114.484V33.384H127.54V39ZM154.738 31.752C154.738 32.904 154.482 33.88 153.97 34.68C153.618 35.192 153.058 35.816 152.29 36.552C151.554 37.288 150.93 37.8 150.418 38.088C149.266 38.696 148.242 39 147.346 39H133.378V10.2H147.346C148.562 10.2 149.618 10.488 150.514 11.064C151.506 11.704 152.642 12.872 153.922 14.568C154.466 15.336 154.738 16.328 154.738 17.544V31.752ZM148.882 31.56V17.784C148.562 16.984 147.97 16.328 147.106 15.816H139.234V33.384H147.106C147.874 32.936 148.466 32.328 148.882 31.56ZM193.363 31.752C193.363 32.904 193.107 33.88 192.595 34.68C192.243 35.192 191.683 35.816 190.915 36.552C190.179 37.288 189.555 37.8 189.043 38.088C187.891 38.696 186.867 39 185.971 39H172.003V10.2H185.971C187.187 10.2 188.243 10.488 189.139 11.064C190.131 11.704 191.267 12.872 192.547 14.568C193.091 15.336 193.363 16.328 193.363 17.544V31.752ZM187.507 31.56V17.784C187.187 16.984 186.595 16.328 185.731 15.816H177.859V33.384H185.731C186.499 32.936 187.091 32.328 187.507 31.56ZM223.192 39H216.952L215.032 33.48H205C204.808 34.088 204.472 35.016 203.992 36.264C203.544 37.48 203.224 38.392 203.032 39H196.792L206.776 10.2H213.256L223.192 39ZM213.256 27.864L209.992 18.6C209.64 19.624 209.096 21.176 208.36 23.256C207.656 25.304 207.128 26.84 206.776 27.864H213.256ZM244.331 15.816H236.603V39H230.699V15.816H222.923V10.2H244.331V15.816ZM270.536 39H264.296L262.376 33.48H252.344C252.152 34.088 251.816 35.016 251.336 36.264C250.888 37.48 250.568 38.392 250.376 39H244.136L254.12 10.2H260.6L270.536 39ZM260.6 27.864L257.336 18.6C256.984 19.624 256.44 21.176 255.704 23.256C255 25.304 254.472 26.84 254.12 27.864H260.6Z" fill="white"/>
</svg>
